<?xml version="1.0" encoding="UTF-8"?>
<svg version="1.1" xmlns="http://www.w3.org/2000/svg" width="64" height="64">
<path d="M0 0 C2.475 0.495 2.475 0.495 5 1 C5 2.32 5 3.64 5 5 C6.32 4.67 7.64 4.34 9 4 C9.33 2.68 9.66 1.36 10 0 C14.30134029 0.51768343 16.49234173 1.86405059 19.6875 4.75 C20.45449219 5.42546875 21.22148438 6.1009375 22.01171875 6.796875 C26.46787886 11.73454553 26.38180972 16.77235605 26.2421875 23.1484375 C25.92895377 26.83651209 25.04331493 28.90207092 23 32 C22.45472656 32.88945313 21.90945312 33.77890625 21.34765625 34.6953125 C16.42030524 42.67491265 16.42030524 42.67491265 14.29296875 44.3203125 C12.07434199 47.20251645 12.69495026 50.70990003 12.8125 54.1875 C12.874375 56.765625 12.93625 59.34375 13 62 C4.75 62 -3.5 62 -12 62 C-12 60.02 -12 58.04 -12 56 C-12.60328125 56.02320313 -13.2065625 56.04640625 -13.828125 56.0703125 C-15.02695312 56.09738281 -15.02695312 56.09738281 -16.25 56.125 C-17.03890625 56.14820313 -17.8278125 56.17140625 -18.640625 56.1953125 C-21.28953002 55.97603228 -22.81253066 55.50810111 -25 54 C-25.82531696 51.29479442 -26.44695059 48.7552822 -27 46 C-28.27794849 41.35216207 -28.27794849 41.35216207 -29.875 36.8125 C-29.936875 35.9153125 -29.936875 35.9153125 -30 35 C-29.3709375 34.4534375 -28.741875 33.906875 -28.09375 33.34375 C-25.30881599 30.22628656 -25.19477856 27.795686 -24.625 23.6875 C-23.72449729 18.47445792 -22.89232191 14.15787335 -19.01171875 10.35546875 C-14.69839043 7.44920676 -9.84545612 5.80186182 -5 4 C-1.82880786 2.71854881 -1.82880786 2.71854881 0 0 Z M15 6 C15.33 6.66 15.66 7.32 16 8 C16.66 7.67 17.32 7.34 18 7 C17.01 6.67 16.02 6.34 15 6 Z M-5 8 C-8.54692029 12.29929732 -10.25630443 16.30790572 -10 22 C-9.11978644 26.57880321 -7.47604737 29.92452207 -4 33.0625 C-3.01 33.701875 -2.02 34.34125 -1 35 C-0.01 34.67 0.98 34.34 2 34 C1.071875 33.443125 0.14375 32.88625 -0.8125 32.3125 C-4.13137905 29.90468579 -5.52016173 28.7818089 -7 25 C-7.94848927 18.11467051 -6.94608347 13.67249499 -3 8 C-3.66 8 -4.32 8 -5 8 Z M4 8 C3.34 9.32 2.68 10.64 2 12 C3.32 12.33 4.64 12.66 6 13 C6 11.35 6 9.7 6 8 C5.34 8 4.68 8 4 8 Z M9 8 C9 9.65 9 11.3 9 13 C9.99 12.67 10.98 12.34 12 12 C11.34 10.68 10.68 9.36 10 8 C9.67 8 9.34 8 9 8 Z M-17 13 C-20.55901269 16.74152616 -21.51883985 19.3311879 -22 24.4375 C-22.66558423 29.77427536 -23.51049801 32.92891434 -27 37 C-26.51917969 37.54140625 -26.03835937 38.0828125 -25.54296875 38.640625 C-23.68676442 41.47897288 -23.51262344 43.38792626 -23.3125 46.75 C-23.24675781 47.73484375 -23.18101563 48.7196875 -23.11328125 49.734375 C-23.07589844 50.48203125 -23.03851563 51.2296875 -23 52 C-21.39658445 52.33692785 -19.79223445 52.66941093 -18.1875 53 C-16.84751953 53.2784375 -16.84751953 53.2784375 -15.48046875 53.5625 C-12.92739307 54.08684843 -12.92739307 54.08684843 -10 54 C-9.67 55.98 -9.34 57.96 -9 60 C-2.4 60 4.2 60 11 60 C10.88179299 54.91405675 10.88179299 54.91405675 10.72973633 49.82910156 C10.69084931 46.50906978 10.78452704 44.35856482 12.51171875 41.484375 C13.24841797 40.74960937 13.24841797 40.74960937 14 40 C12.68 39.67 11.36 39.34 10 39 C10 37.68 10 36.36 10 35 C8.35 35 6.7 35 5 35 C4.67 36.32 4.34 37.64 4 39 C2.68 39.33 1.36 39.66 0 40 C-0.33 39.01 -0.66 38.02 -1 37 C-1.928125 36.443125 -2.85625 35.88625 -3.8125 35.3125 C-7.83275045 32.39584771 -9.57429242 29.73075696 -11 25 C-11.7029263 19.30629694 -11.24358519 14.32851482 -9 9 C-12.36336147 9 -14.36135124 11.04739992 -17 13 Z M19 9 C19.33 9.99 19.66 10.98 20 12 C20 11.01 20 10.02 20 9 C19.67 9 19.34 9 19 9 Z M21 12 C21.33 16.62 21.66 21.24 22 26 C24.46751239 22.29873141 24.30721156 20.37776468 24 16 C23.11935073 13.64630193 23.11935073 13.64630193 22 12 C21.67 12 21.34 12 21 12 Z M-4 13 C-4.66 14.98 -5.32 16.96 -6 19 C-4.68 19 -3.36 19 -2 19 C-2 17.02 -2 15.04 -2 13 C-2.66 13 -3.32 13 -4 13 Z M16 13 C16 14.65 16 16.3 16 18 C17.32 18.33 18.64 18.66 20 19 C19.34 17.02 18.68 15.04 18 13 C17.34 13 16.68 13 16 13 Z M1 15 C0.67 16.32 0.34 17.64 0 19 C1.98 19 3.96 19 6 19 C6 17.68 6 16.36 6 15 C4.35 15 2.7 15 1 15 Z M9 15 C9 16.32 9 17.64 9 19 C10.65 19 12.3 19 14 19 C14 17.68 14 16.36 14 15 C12.35 15 10.7 15 9 15 Z M-6 21 C-5.34 22.98 -4.68 24.96 -4 27 C-3.34 27 -2.68 27 -2 27 C-2 25.02 -2 23.04 -2 21 C-3.32 21 -4.64 21 -6 21 Z M0 21 C0.33 22.32 0.66 23.64 1 25 C2.65 25 4.3 25 6 25 C6 23.68 6 22.36 6 21 C4.02 21 2.04 21 0 21 Z M9 21 C9 22.32 9 23.64 9 25 C10.65 25 12.3 25 14 25 C14 23.68 14 22.36 14 21 C12.35 21 10.7 21 9 21 Z M17 21 C16.67 22.65 16.34 24.3 16 26 C16.99 26 17.98 26 19 26 C19.33 24.35 19.66 22.7 20 21 C19.01 21 18.02 21 17 21 Z M4 27 C3.34 27.66 2.68 28.32 2 29 C2.99 30.485 2.99 30.485 4 32 C4.66 32 5.32 32 6 32 C6 30.35 6 28.7 6 27 C5.34 27 4.68 27 4 27 Z M9 27 C9 28.65 9 30.3 9 32 C9.99 31.34 10.98 30.68 12 30 C11.67 29.01 11.34 28.02 11 27 C10.34 27 9.68 27 9 27 Z M16 32 C15.67 32.66 15.34 33.32 15 34 C15.99 33.67 16.98 33.34 18 33 C17.34 32.67 16.68 32.34 16 32 Z " fill="#EF6F1D" transform="translate(34,1)"/>
<path d="M0 0 C6.22473852 0.77120654 9.94415135 4.42707105 14 9 C15.20765365 11.46140096 15.60012952 13.258031 16 16 C12.52545903 14.84181968 12.14889762 14.07520138 10.1875 11.125 C7.53257324 7.3948279 5.16998794 5.93952927 1 4 C0.125 1.8125 0.125 1.8125 0 0 Z " fill="#F3B905" transform="translate(44,1)"/>
<path d="M0 0 C1.5 1.375 1.5 1.375 3 3 C3 3.66 3 4.32 3 5 C3.556875 5.061875 4.11375 5.12375 4.6875 5.1875 C8.0562096 6.37110067 9.722772 8.29194508 12 11 C12.8125 13.8125 12.8125 13.8125 13 16 C12.01 16 11.02 16 10 16 C8.96564444 14.35443434 7.97236487 12.6829392 7 11 C5.35353315 9.31337542 3.68816933 7.64488294 2 6 C0 3 0 3 0 0 Z " fill="#ED6119" transform="translate(43,2)"/>
<path d="M0 0 C0.99 0 1.98 0 3 0 C3.66 1.65 4.32 3.3 5 5 C3.68 4.67 2.36 4.34 1 4 C0.67 2.68 0.34 1.36 0 0 Z " fill="#EF920E" transform="translate(44,1)"/>
</svg>
